# xmcd
#
# Track frame offsets:
#	150
#	17865
#	32898
#	54797
#	66611
#	82684
#	91352
#	107462
#	127486
#	142461
#	161972
#	175047
#	191546
#	209966
#
# Disc length: 3018 seconds
# Revision: 0
# Processed by: cddbd v1.5.2PL0 Copyright (c) Steve Scherf et al.
# Submitted via: dBpowerAMP V12.0
#
DISCID=d40bc80e
DTITLE=Backsliders -  Dark Side
DYEAR=2014
DGENRE=Blues
TTITLE0=Dark Side of Newtown
TTITLE1=Kill The Emotion
TTITLE2=Prayer Flags
TTITLE3=99 Years And One Dark Day
TTITLE4=Sixties Girl
TTITLE5=I'll Fly Away
TTITLE6=House on The Corner
TTITLE7=Hard Times Killing Floor Blues
TTITLE8=Light on Tonight
TTITLE9=Shocking Fact
TTITLE10=Phone Cap Blues
TTITLE11=Little Church in Shiloh
TTITLE12=Emmett Till (Fingers Malone Remix)
TTITLE13=Flanelette Border (Fingers Malone Remix)
EXTD=
EXTT0=
EXTT1=
EXTT2=
EXTT3=
EXTT4=
EXTT5=
EXTT6=
EXTT7=
EXTT8=
EXTT9=
EXTT10=
EXTT11=
EXTT12=
EXTT13=
PLAYORDER=
